<svg width="536" height="605" viewBox="0 0 536 605" fill="none" xmlns="http://www.w3.org/2000/svg">
<path d="M377.153 119.471V-227.212H550.089V164.917" stroke="#CCDDE2" stroke-width="4.82" stroke-miterlimit="10"/>
<path d="M394.343 5.07259V25.3606H416.435V-11.8679H394.343V5.07259ZM397.975 -8.54576H412.776V5.07259H397.975V-8.54576ZM397.975 8.40106H412.776V22.0321H397.975V8.40106Z" fill="#D7E8F0"/>
<path d="M433.293 5.07259V25.3606H455.385V-11.8679H433.293V5.07259ZM436.939 -8.53308H451.768V5.07259H436.939V-8.53308ZM436.939 8.41374H451.768V22.0321H436.939V8.41374Z" fill="#D7E8F0"/>
<path d="M471.18 5.07259V25.3606H493.272V-11.8679H471.18V5.07259ZM474.812 -8.54576H489.641V5.07259H474.812V-8.54576ZM474.812 8.40106H489.641V22.0321H474.812V8.40106Z" fill="#D7E8F0"/>
<path d="M506.845 5.07259V25.3606H528.936V-11.8679H506.845V5.07259ZM510.469 -8.54576H525.305V5.07259H510.469V-8.54576ZM510.469 8.40106H525.305V22.0321H510.469V8.40106Z" fill="#D7E8F0"/>
<path d="M369.525 431.836C363.691 437.237 357.913 443.248 351.755 448.706C350.061 450.224 348.328 451.691 346.556 453.106C344.589 454.679 342.559 456.175 340.481 457.544C340.33 457.145 340.146 456.758 339.929 456.384C336.443 450.044 326.985 446.031 325.811 438.841C324.741 432.127 331.334 425.959 330.257 419.378C329.042 411.934 319.073 407.515 317.23 400.244C316.056 395.729 317.105 390.524 316.677 385.871C316.188 380.668 315.23 375.51 313.812 370.452C314.503 370.407 315.193 370.388 315.884 370.369C329.898 370.154 343.691 377.381 348.227 387.538C351.879 395.78 350.022 405.233 354.875 412.936C355.167 413.434 355.497 413.913 355.862 414.369C356.506 415.177 357.197 415.952 357.933 416.689L359.473 418.16C359.728 418.395 360.011 418.61 360.267 418.864C360.522 419.118 360.798 419.34 361.054 419.593C363.47 421.717 365.935 423.854 367.536 426.39C367.681 426.61 367.811 426.839 367.923 427.074C368.069 427.31 368.198 427.554 368.31 427.803C368.455 428.076 368.565 428.336 368.669 428.59C368.772 428.843 368.903 429.224 369.014 429.49C369.166 429.965 369.311 430.416 369.421 430.885C369.421 431.005 369.421 431.107 369.463 431.202C369.504 431.297 369.463 431.278 369.463 431.322C369.472 431.36 369.472 431.399 369.463 431.436C369.463 431.519 369.463 431.576 369.504 431.633V431.671C369.494 431.727 369.501 431.784 369.525 431.836Z" fill="#EBE6E6"/>
<path d="M369.615 432.229H369.636L369.615 432.249V432.229Z" fill="#EBE6E6"/>
<path d="M369.656 432.193C369.829 432.053 369.974 431.958 370.146 431.819C370.001 431.939 369.829 432.072 369.677 432.212C369.677 432.212 369.677 432.212 369.635 432.212L369.656 432.193Z" fill="#EBE6E6"/>
<path d="M418.72 400.979C418.571 403.19 418.571 405.407 418.72 407.617C414.509 408.562 410.36 409.602 406.293 410.857C403.767 411.624 401.288 412.467 398.81 413.431C391.934 415.993 385.459 419.383 379.556 423.512C380.842 421.498 381.748 419.298 382.234 417.007C382.234 416.912 382.276 416.81 382.296 416.696C383.366 411.948 383.449 406.958 385.886 402.419C390.422 394.05 403.684 387.982 417.567 387.589H417.822C419.086 387.589 420.37 387.589 421.654 387.646C420.216 391.995 419.233 396.46 418.72 400.979Z" fill="#EBE6E6"/>
<path d="M412.41 394.868L406.252 410.832C403.725 411.599 401.247 412.442 398.769 413.406C402.724 406.343 407.253 399.959 412.41 394.868Z" fill="#EBE6E6"/>
<path d="M369.683 432.254C369.683 432.127 369.662 432.001 369.621 431.88C369.663 432.115 369.683 432.254 369.683 432.254Z" fill="#EBE6E6"/>
<path d="M322.856 378.823C336.664 395.262 345.832 423.202 351.755 448.708C350.062 450.225 348.329 451.692 346.557 453.108L322.856 378.823Z" fill="#EBE6E6"/>
<path d="M371.61 406.54C368.848 414.281 368.745 422.099 369.069 427.05C369.153 428.65 369.337 430.244 369.621 431.824L371.61 406.54Z" fill="#EBE6E6"/>
<path d="M369.525 431.836C363.691 437.237 357.913 443.248 351.755 448.706C350.061 450.224 348.328 451.691 346.556 453.106C344.589 454.679 342.559 456.175 340.481 457.544C340.33 457.145 340.146 456.758 339.929 456.384C336.443 450.044 326.985 446.031 325.811 438.841C324.741 432.127 331.334 425.959 330.257 419.378C329.042 411.934 319.073 407.516 317.23 400.244C316.056 395.729 317.105 390.524 316.677 385.871C316.188 380.668 315.23 375.51 313.812 370.452C314.503 370.407 315.193 370.388 315.884 370.369C329.898 370.154 343.691 377.381 348.227 387.538C351.879 395.78 350.022 405.233 354.875 412.936C355.167 413.434 355.497 413.913 355.862 414.369C356.506 415.177 357.197 415.952 357.933 416.689L359.473 418.16C359.728 418.395 360.011 418.61 360.267 418.864C360.522 419.118 360.798 419.34 361.054 419.593C363.47 421.717 365.935 423.854 367.536 426.39C367.681 426.61 367.811 426.839 367.923 427.074C368.069 427.31 368.198 427.554 368.31 427.803C368.455 428.076 368.565 428.336 368.669 428.59C368.772 428.843 368.903 429.224 369.014 429.49C369.166 429.965 369.311 430.416 369.421 430.885C369.421 431.005 369.421 431.107 369.463 431.202C369.504 431.297 369.463 431.278 369.463 431.322C369.472 431.36 369.472 431.399 369.463 431.436C369.463 431.519 369.463 431.576 369.504 431.633V431.671C369.494 431.727 369.501 431.784 369.525 431.836Z" stroke="#CCDDE2" stroke-width="4.65" stroke-miterlimit="10"/>
<path d="M382.234 417.026C381.745 419.311 380.84 421.503 379.556 423.512" stroke="#CCDDE2" stroke-width="4.65" stroke-miterlimit="10"/>
<path d="M418.699 407.616C418.551 405.406 418.551 403.189 418.699 400.978C419.214 396.465 420.197 392.007 421.633 387.664C420.349 387.588 419.065 387.588 417.802 387.607H417.546C403.663 388 390.401 394.068 385.866 402.437C383.429 406.976 383.346 411.947 382.276 416.714" stroke="#CCDDE2" stroke-width="4.65" stroke-miterlimit="10"/>
<path d="M382.241 417.033C382.241 416.932 382.283 416.837 382.303 416.716" stroke="#CCDDE2" stroke-width="4.65" stroke-miterlimit="10"/>
<path d="M382.296 416.689C382.296 416.803 382.255 416.904 382.234 416.999C381.748 419.293 380.842 421.495 379.556 423.511" stroke="#CCDDE2" stroke-width="4.65" stroke-miterlimit="10"/>
<path d="M382.241 417.033C382.241 416.932 382.283 416.837 382.303 416.716" stroke="#CCDDE2" stroke-width="4.65" stroke-miterlimit="10"/>
<path d="M369.615 432.135V432.231" stroke="#CCDDE2" stroke-width="4.65" stroke-miterlimit="10"/>
<path d="M412.41 394.868C407.253 399.94 402.745 406.343 398.769 413.431" stroke="#CCDDE2" stroke-width="4.65" stroke-miterlimit="10"/>
<path d="M369.683 432.254C369.683 432.127 369.662 432.001 369.621 431.88C369.663 432.115 369.683 432.254 369.683 432.254Z" stroke="#CCDDE2" stroke-width="4.65" stroke-miterlimit="10"/>
<path d="M322.856 378.823C336.664 395.262 345.832 423.202 351.755 448.708" stroke="#CCDDE2" stroke-width="4.65" stroke-miterlimit="10"/>
<path d="M371.61 406.54C368.848 414.281 368.745 422.099 369.069 427.05C369.153 428.65 369.337 430.244 369.621 431.824" stroke="#CCDDE2" stroke-width="4.65" stroke-miterlimit="10"/>
<path d="M518.456 224.042C527.245 254.271 536.309 286.84 535.564 317.912C534.77 350.658 516.613 378.142 484.083 392.09C462.91 401.163 440.149 402.83 418.699 407.604C414.488 408.549 410.339 409.589 406.273 410.844C403.746 411.611 401.268 412.454 398.789 413.418C391.919 415.985 385.451 419.379 379.556 423.511" stroke="#CCDDE2" stroke-width="4.65" stroke-miterlimit="10"/>
<path d="M167.194 51.9876C167.194 51.9876 126.214 43.3969 92.103 53.9847C87.8538 55.2705 83.7365 56.8999 79.8008 58.8539C60.4706 68.4591 45.8833 86.5091 46.9534 119.293C47.5264 136.411 46.4356 153.295 42.7629 169.677C41.5616 174.994 40.0774 180.256 38.31 185.464C33.9808 198.196 27.7323 210.308 19.7462 221.45C-5.6867 256.865 -1.83449 293.675 26.3737 327.81C27.8511 329.597 29.3699 331.366 30.9301 333.097" stroke="#CCDDE2" stroke-width="4.65" stroke-miterlimit="10"/>
<path d="M465.789 36.3037H213.558C184.467 36.3037 160.884 57.9616 160.884 84.6781V302.99C160.884 329.706 184.467 351.364 213.558 351.364H465.789C494.88 351.364 518.463 329.706 518.463 302.99V84.6781C518.463 57.9616 494.88 36.3037 465.789 36.3037Z" fill="#3FBDF1"/>
<path d="M462.289 31.7H211.839C180.815 31.7 155.665 54.7969 155.665 83.2885V299.774C155.665 328.265 180.815 351.363 211.839 351.363H462.289C493.313 351.363 518.463 328.265 518.463 299.774V83.2885C518.463 54.7969 493.313 31.7 462.289 31.7Z" stroke="black" stroke-width="4.65" stroke-miterlimit="10"/>
<path d="M458.754 42.4976H220.593C191.502 42.4976 167.918 64.1555 167.918 90.8716V296.788C167.918 323.505 191.502 345.163 220.593 345.163H458.754C487.845 345.163 511.428 323.505 511.428 296.788V90.8716C511.428 64.1555 487.845 42.4976 458.754 42.4976Z" fill="#3FBDF1"/>
<path d="M470.842 58.3848H398.913C389.138 58.3848 381.206 66.2211 381.206 75.8643V228.76C381.206 238.422 389.138 246.277 398.913 246.277H470.842C480.638 246.277 488.598 238.422 488.598 228.76V75.8643C488.598 66.2211 480.638 58.3848 470.842 58.3848ZM483.503 229.425C483.491 232.639 482.094 235.719 479.619 237.991C477.143 240.263 473.79 241.544 470.29 241.554H399.514C396.009 241.544 392.65 240.262 390.171 237.988C387.69 235.713 386.289 232.632 386.273 229.413V75.2366C386.289 72.0178 387.69 68.9353 390.171 66.6611C392.65 64.387 396.009 63.1054 399.514 63.0954H470.29C473.792 63.1055 477.148 64.3882 479.623 66.663C482.099 68.9378 483.494 72.0203 483.503 75.2366V229.425Z" fill="#D7E8F0"/>
<path d="M469.896 264.219H397.968C388.199 264.219 380.26 272.056 380.26 281.699V304.954C380.26 314.622 388.199 322.478 397.968 322.478H469.896C479.693 322.478 487.652 314.622 487.652 304.954V281.699C487.652 272.056 479.693 264.219 469.896 264.219ZM482.558 305.626C482.549 308.842 481.153 311.924 478.677 314.197C476.201 316.471 472.846 317.753 469.344 317.761H398.568C395.064 317.753 391.705 316.472 389.225 314.199C386.744 311.925 385.344 308.844 385.327 305.626V281.071C385.344 277.852 386.744 274.771 389.225 272.496C391.705 270.222 395.063 268.94 398.568 268.93H469.344C472.846 268.94 476.202 270.223 478.678 272.498C481.153 274.772 482.549 277.855 482.558 281.071V305.626Z" fill="#D7E8F0"/>
<path d="M308.704 281.123L203.3 279.703C202.165 279.686 201.085 279.257 200.296 278.509C199.506 277.762 199.072 276.756 199.088 275.715C199.087 275.354 199.143 274.996 199.254 274.65C199.526 273.83 200.08 273.114 200.834 272.609C201.587 272.104 202.498 271.836 203.431 271.848L308.835 273.255C308.047 274.379 307.606 275.678 307.558 277.015C307.501 278.457 307.899 279.884 308.704 281.123Z" fill="#3FBDF1"/>
<path d="M334.261 278.586C333.994 279.404 333.446 280.121 332.7 280.63C331.954 281.14 331.049 281.414 330.119 281.413L322.525 281.312C323.34 280.144 323.783 278.789 323.806 277.402C323.829 276.014 323.431 274.648 322.656 273.457L330.25 273.558C331.382 273.58 332.46 274.011 333.248 274.758C334.037 275.504 334.472 276.506 334.461 277.546C334.448 277.9 334.38 278.25 334.261 278.586Z" fill="#D7E8F0"/>
<path d="M334.012 294.175C333.745 294.992 333.197 295.707 332.451 296.213C331.704 296.72 330.799 296.99 329.87 296.984L225.108 295.576C226.086 294.505 226.714 293.201 226.918 291.815C227.122 290.429 226.894 289.018 226.261 287.747L329.967 289.103C331.1 289.124 332.178 289.554 332.967 290.301C333.756 291.048 334.191 292.051 334.178 293.091C334.182 293.458 334.126 293.823 334.012 294.175Z" fill="#D7E8F0"/>
<path d="M212.502 295.4L203.058 295.273C201.926 295.258 200.847 294.832 200.057 294.088C199.266 293.344 198.829 292.343 198.84 291.304C198.845 290.937 198.903 290.572 199.012 290.22C199.277 289.404 199.825 288.689 200.573 288.186C201.321 287.683 202.227 287.417 203.155 287.43L211.57 287.551C211.078 288.488 210.8 289.509 210.755 290.549C210.686 292.306 211.305 294.028 212.502 295.4Z" fill="#3FBDF1"/>
<path d="M301.248 312.359L203.445 311.053C202.313 311.03 201.237 310.598 200.448 309.852C199.661 309.106 199.224 308.105 199.233 307.065C199.236 306.713 199.296 306.362 199.413 306.025C199.678 305.207 200.225 304.489 200.972 303.979C201.719 303.47 202.624 303.195 203.555 303.198L301.214 304.516C300.416 305.694 299.994 307.052 299.994 308.438C299.994 309.824 300.416 311.182 301.214 312.359H301.248Z" fill="#3FBDF1"/>
<path d="M334.42 309.943C334.155 310.76 333.607 311.475 332.86 311.981C332.112 312.487 331.206 312.755 330.278 312.745L314.91 312.561L301.248 312.39C300.451 311.213 300.028 309.855 300.028 308.469C300.028 307.083 300.451 305.725 301.248 304.548L315.166 304.738L330.354 304.941C331.484 304.958 332.561 305.384 333.35 306.128C334.14 306.872 334.576 307.872 334.565 308.91C334.57 309.259 334.521 309.607 334.42 309.943Z" fill="#D7E8F0"/>
<path d="M322.484 281.313C321.422 282.836 319.795 283.954 317.904 284.459C316.012 284.964 313.986 284.821 312.201 284.058C310.415 283.294 308.992 281.962 308.196 280.308C307.399 278.653 307.283 276.79 307.87 275.063C308.457 273.336 309.706 271.864 311.385 270.919C313.064 269.974 315.06 269.621 317.001 269.925C318.943 270.23 320.698 271.17 321.941 272.573C323.184 273.976 323.831 275.745 323.761 277.553C323.71 278.889 323.269 280.187 322.484 281.313Z" fill="#EBE6E6"/>
<g opacity="0.72">
<path opacity="0.72" d="M319.425 276.747C319.242 277.639 318.785 278.465 318.107 279.125C317.777 279.461 317.416 279.77 317.03 280.05C316.816 280.19 315.704 281.008 315.49 280.906C314.027 280.228 312.183 278.522 311.955 276.855C311.918 276.594 311.918 276.329 311.955 276.069C312.036 275.62 312.29 275.212 312.67 274.921C313.05 274.628 313.531 274.471 314.027 274.477C314.351 274.488 314.669 274.569 314.952 274.713C315.237 274.858 315.48 275.061 315.663 275.308C315.87 275.079 316.131 274.895 316.426 274.771C316.722 274.647 317.043 274.586 317.368 274.592C317.66 274.6 317.947 274.665 318.212 274.78C318.476 274.895 318.712 275.058 318.905 275.26C319.097 275.462 319.243 275.699 319.333 275.954C319.422 276.21 319.454 276.48 319.425 276.747Z" fill="#3FBDF1"/>
</g>
<path d="M225.094 295.578C224.321 296.428 223.35 297.111 222.253 297.573C221.155 298.035 219.959 298.266 218.752 298.249C217.545 298.232 216.357 297.967 215.276 297.474C214.194 296.981 213.247 296.272 212.502 295.4C211.31 294.026 210.695 292.305 210.769 290.55C210.815 289.51 211.092 288.489 211.584 287.551C212.277 286.258 213.363 285.176 214.71 284.437C216.057 283.698 217.609 283.332 219.178 283.386C220.688 283.429 222.155 283.864 223.41 284.639C224.663 285.414 225.654 286.497 226.268 287.767C226.901 289.038 227.129 290.448 226.925 291.834C226.721 293.22 226.093 294.524 225.115 295.597L225.094 295.578Z" fill="#EBE6E6"/>
<g opacity="0.72">
<path opacity="0.72" d="M222.644 290.272C222.456 291.162 221.997 291.984 221.318 292.643C220.994 292.983 220.632 293.293 220.241 293.568C220.034 293.708 218.916 294.532 218.708 294.424C217.245 293.752 215.402 292.047 215.167 290.373C215.129 290.112 215.129 289.847 215.167 289.587C215.238 289.215 215.428 288.872 215.712 288.6C215.996 288.328 216.362 288.139 216.762 288.058C217.163 287.978 217.582 288.008 217.964 288.146C218.346 288.283 218.675 288.522 218.909 288.832C219.183 288.483 219.578 288.229 220.029 288.112C220.481 287.996 220.961 288.023 221.393 288.19C221.825 288.358 222.183 288.654 222.408 289.033C222.632 289.411 222.71 289.847 222.63 290.272H222.644Z" fill="#3FBDF1"/>
</g>
<path d="M314.91 312.561C313.935 313.913 312.507 314.936 310.842 315.476C309.177 316.015 307.365 316.042 305.683 315.551C304 315.06 302.537 314.078 301.516 312.755C300.495 311.432 299.972 309.839 300.026 308.218C300.077 306.919 300.493 305.655 301.234 304.548C301.802 303.713 302.545 302.991 303.418 302.421C304.292 301.852 305.28 301.448 306.326 301.231C307.371 301.014 308.453 300.99 309.507 301.16C310.563 301.329 311.572 301.689 312.475 302.218C313.378 302.747 314.158 303.436 314.769 304.243C315.382 305.051 315.813 305.961 316.04 306.923C316.266 307.885 316.283 308.878 316.089 309.846C315.895 310.813 315.494 311.737 314.91 312.561Z" fill="#EBE6E6"/>
<g opacity="0.72">
<path opacity="0.72" d="M311.907 307.908C311.722 308.801 311.262 309.626 310.582 310.286C310.257 310.626 309.896 310.936 309.505 311.211C309.298 311.351 308.179 312.169 307.972 312.067C306.509 311.389 304.665 309.69 304.431 308.016C304.393 307.755 304.393 307.49 304.431 307.23C304.502 306.858 304.692 306.515 304.975 306.243C305.26 305.971 305.626 305.782 306.026 305.701C306.427 305.621 306.845 305.651 307.227 305.789C307.61 305.926 307.938 306.165 308.172 306.475C308.446 306.127 308.841 305.874 309.291 305.758C309.741 305.641 310.221 305.668 310.653 305.834C311.084 306 311.442 306.296 311.667 306.673C311.892 307.049 311.972 307.485 311.893 307.908H311.907Z" fill="#3FBDF1"/>
</g>
<path d="M198.281 76.9415L198.46 99.8859C198.506 103.888 200.235 107.719 203.286 110.577C206.336 113.435 210.472 115.1 214.829 115.222L239.557 115.615C241.684 115.645 243.795 115.283 245.766 114.549C247.737 113.815 249.527 112.725 251.031 111.344C252.535 109.963 253.721 108.318 254.519 106.507C255.317 104.697 255.711 102.758 255.677 100.805L255.491 77.8608C255.448 73.859 253.721 70.0283 250.671 67.1703C247.621 64.3128 243.485 62.6499 239.129 62.5305L214.401 62.1311C212.274 62.1011 210.162 62.4638 208.191 63.1976C206.22 63.9312 204.43 65.021 202.927 66.4025C201.423 67.784 200.237 69.4286 199.439 71.2386C198.641 73.0494 198.247 74.9888 198.281 76.9415Z" fill="#EBE6E6"/>
<path d="M202.084 82.6995L202.216 99.3104C202.256 102.785 203.759 106.111 206.408 108.592C209.057 111.074 212.648 112.518 216.43 112.624L237.907 112.967C239.754 112.993 241.588 112.678 243.3 112.04C245.012 111.404 246.567 110.458 247.874 109.259C249.181 108.06 250.212 106.632 250.908 105.061C251.603 103.489 251.948 101.806 251.922 100.109V98.987C248.905 93.3191 243.03 84.8361 236.734 89.9081C227.697 97.1991 223.562 91.6516 218.294 84.4938C213.897 78.5025 207.207 74.1279 202.084 82.6995Z" fill="#3FBDF1"/>
<path d="M242.491 80.4051C245.22 78.7408 245.922 75.3058 244.061 72.7337C242.201 70.1615 238.48 69.4255 235.752 71.0897C233.024 72.7546 232.322 76.189 234.183 78.7611C236.043 81.3333 239.764 82.0693 242.491 80.4051Z" fill="#3FBDF1"/>
<path d="M341.931 86.2245C338.066 86.2232 334.296 87.3207 331.138 89.3666C327.979 91.4119 325.588 94.3055 324.292 97.6492C322.997 100.993 322.859 104.623 323.9 108.041C324.941 111.459 327.108 114.498 330.105 116.739L281.089 208.485C280.788 208.441 280.483 208.414 280.178 208.403C279.397 208.412 278.62 208.523 277.872 208.732L245.985 172.347C247.408 170.543 248.214 168.39 248.301 166.163C248.386 163.936 247.748 161.736 246.466 159.844C245.185 157.951 243.32 156.453 241.107 155.538C238.894 154.624 236.435 154.336 234.043 154.71C231.651 155.085 229.435 156.105 227.677 157.641C225.919 159.177 224.699 161.159 224.173 163.334C223.647 165.509 223.839 167.78 224.724 169.854C225.608 171.929 227.145 173.715 229.14 174.985L206.793 233.389C204.845 233.496 202.996 234.219 201.563 235.435C200.129 236.652 199.198 238.287 198.929 240.062C198.659 241.837 199.066 243.644 200.082 245.175C201.099 246.705 202.66 247.865 204.502 248.458C206.345 249.051 208.353 249.04 210.187 248.427C212.022 247.814 213.568 246.637 214.564 245.095C215.56 243.554 215.945 241.743 215.652 239.971C215.359 238.198 214.407 236.574 212.958 235.373L235.305 176.963C235.581 176.963 235.85 177.001 236.126 177.001C237.788 177.001 239.432 176.69 240.959 176.088L272.84 212.46C272.168 213.579 271.812 214.835 271.804 216.112C271.772 217.148 271.966 218.179 272.375 219.145C272.784 220.11 273.4 220.99 274.187 221.733C274.973 222.476 275.914 223.066 276.953 223.47C277.992 223.874 279.109 224.081 280.237 224.081C281.365 224.081 282.482 223.874 283.521 223.47C284.56 223.066 285.501 222.476 286.287 221.733C287.073 220.99 287.689 220.11 288.098 219.145C288.507 218.179 288.702 217.148 288.67 216.112C288.664 214.39 288.027 212.719 286.861 211.37L335.877 119.624C338.453 120.457 341.197 120.762 343.915 120.518C346.634 120.273 349.261 119.485 351.613 118.21C353.965 116.934 355.983 115.2 357.528 113.131C359.073 111.063 360.105 108.709 360.554 106.234C361.003 103.76 360.856 101.225 360.125 98.8081C359.393 96.3913 358.094 94.1508 356.32 92.2443C354.545 90.3373 352.337 88.8106 349.852 87.7702C347.366 86.7304 344.662 86.203 341.931 86.2245Z" fill="#D7E8F0"/>
<path d="M401.164 119.286H466.748" stroke="#EBE6E6" stroke-width="4.65" stroke-miterlimit="10"/>
<path d="M401.164 128.588H466.748" stroke="#EBE6E6" stroke-width="4.65" stroke-miterlimit="10"/>
<path d="M401.164 137.882H466.748" stroke="#EBE6E6" stroke-width="4.65" stroke-miterlimit="10"/>
<path d="M401.164 147.177H466.748" stroke="#EBE6E6" stroke-width="4.65" stroke-miterlimit="10"/>
<path d="M401.164 156.477H466.748" stroke="#EBE6E6" stroke-width="4.65" stroke-miterlimit="10"/>
<path d="M401.164 210.772H466.748" stroke="#EBE6E6" stroke-width="4.65" stroke-miterlimit="10"/>
<path d="M401.164 218.978H466.748" stroke="#EBE6E6" stroke-width="4.65" stroke-miterlimit="10"/>
<path d="M452.969 281.8C453.628 282.302 454.156 282.933 454.515 283.648C454.873 284.362 455.052 285.141 455.04 285.927L454.888 304.522C454.883 305.224 454.726 305.918 454.428 306.564C454.13 307.211 453.696 307.797 453.151 308.288C452.606 308.78 451.96 309.168 451.251 309.431C450.542 309.693 449.784 309.824 449.02 309.816L418.644 309.575C417.104 309.562 415.632 308.988 414.552 307.978C413.473 306.969 412.873 305.608 412.886 304.193L413.066 285.585C413.124 284.183 413.763 282.855 414.853 281.872C415.942 280.889 417.4 280.326 418.927 280.297L449.303 280.538C450.649 280.549 451.947 280.996 452.969 281.8Z" fill="#EBE6E6"/>
<path d="M448.675 285.2L434.508 296.377C434.328 296.519 434.098 296.596 433.859 296.596C433.622 296.596 433.391 296.519 433.211 296.377L418.789 284.965C418.629 284.842 418.516 284.676 418.465 284.49C418.414 284.305 418.428 284.11 418.504 283.932C418.58 283.754 418.716 283.603 418.89 283.499C419.066 283.395 419.271 283.345 419.479 283.355L448.067 283.589C448.268 283.595 448.462 283.657 448.624 283.767C448.786 283.877 448.907 284.028 448.973 284.202C449.039 284.377 449.045 284.566 448.992 284.744C448.939 284.921 448.829 285.081 448.675 285.2Z" fill="#3FBDF1"/>
<path d="M434.909 171.42C431.882 171.418 428.923 172.239 426.406 173.782C423.888 175.324 421.925 177.517 420.765 180.084C419.605 182.651 419.3 185.477 419.889 188.203C420.477 190.929 421.933 193.433 424.072 195.399C426.212 197.365 428.937 198.705 431.905 199.248C434.873 199.791 437.95 199.514 440.746 198.451C443.542 197.388 445.932 195.587 447.614 193.276C449.296 190.966 450.193 188.249 450.193 185.47C450.194 183.625 449.8 181.799 449.032 180.095C448.264 178.391 447.138 176.842 445.719 175.538C444.3 174.233 442.615 173.198 440.76 172.492C438.905 171.785 436.917 171.421 434.909 171.42ZM434.909 196.146C434.316 196.146 433.747 195.93 433.327 195.545C432.907 195.159 432.672 194.637 432.672 194.092C432.672 193.547 432.907 193.024 433.327 192.64C433.747 192.254 434.316 192.038 434.909 192.038C435.502 192.038 436.071 192.254 436.49 192.64C436.91 193.024 437.145 193.547 437.145 194.092C437.145 194.637 436.91 195.159 436.49 195.545C436.071 195.93 435.502 196.146 434.909 196.146ZM437.719 180.347C437.249 183.396 436.849 186.598 435.861 189.553C435.77 189.713 435.632 189.848 435.462 189.942C435.293 190.036 435.099 190.085 434.902 190.085C434.704 190.085 434.51 190.036 434.341 189.942C434.172 189.848 434.034 189.713 433.942 189.553C433.242 187.327 432.707 185.061 432.341 182.769C432.03 181.108 430.96 178.401 431.989 176.79C432.879 175.338 435.399 175.167 436.821 175.922C438.637 176.816 437.933 178.787 437.719 180.322V180.347Z" fill="#EBE6E6"/>
<path d="M342.2 116.358C349.787 116.358 355.939 110.71 355.939 103.741C355.939 96.7737 349.787 91.1248 342.2 91.1248C334.613 91.1248 328.462 96.7737 328.462 103.741C328.462 110.71 334.613 116.358 342.2 116.358Z" fill="#EBE6E6"/>
<path d="M434.798 85.6661C437.334 85.6661 439.389 83.7787 439.389 81.45C439.389 79.1219 437.334 77.2339 434.798 77.2339C432.263 77.2339 430.208 79.1219 430.208 81.45C430.208 83.7787 432.263 85.6661 434.798 85.6661Z" fill="#EBE6E6"/>
<path d="M421.979 100.514C421.979 97.3912 423.33 94.3962 425.733 92.1886C428.138 89.9803 431.399 88.7402 434.799 88.7402C438.199 88.7402 441.459 89.9803 443.864 92.1886C446.268 94.3962 447.619 97.3912 447.619 100.514H421.979Z" fill="#EBE6E6"/>
<path d="M346.501 503.516C346.498 504.474 346.177 505.408 345.582 506.194C344.987 506.981 344.144 507.581 343.167 507.916L295.083 524.4C295.083 524.4 292.791 520.495 288.794 513.971L261.331 471.778C253.91 506.839 245.632 541.943 240.503 563.822L235.56 585.607L255.373 591.592C256.564 591.855 257.625 592.479 258.384 593.362C259.144 594.244 259.56 595.335 259.564 596.461C259.562 597.224 259.371 597.977 259.006 598.663C258.641 599.348 258.111 599.948 257.456 600.418C256.8 600.887 256.038 601.215 255.225 601.374C254.412 601.533 253.57 601.52 252.764 601.336L206.841 590.647V580.338L205.75 580.142L206.696 459.891L161.823 450.146C156.196 451.757 150.252 453.234 144.177 454.432C144.111 454.44 144.047 454.453 143.984 454.47C129.238 458.02 113.836 458.63 98.8132 456.258C98.6821 456.258 98.5302 456.201 98.4059 456.176C97.3152 455.985 96.2244 455.764 95.1543 455.542C94.8299 455.485 94.5123 455.428 94.1878 455.345C93.2489 455.149 92.31 454.895 91.3712 454.66C90.8534 454.521 90.3425 454.407 89.8524 454.267C89.3622 454.128 88.9963 454.014 88.5683 453.874C80.4828 451.543 73.0151 447.688 66.6424 442.557C61.756 438.789 57.6132 434.277 54.3954 429.218C53.0147 427.215 51.7237 425.11 50.5225 422.948C43.2323 409.729 41.7135 405.234 43.8329 405.113C39.1653 403.603 34.6441 401.737 30.3156 399.534C30.3156 399.534 20.7748 348.402 41.5823 296.94C41.1839 293.757 41.2557 290.539 41.7963 287.373C46.1801 258.501 70.3082 228.823 99.0963 216.803C114.519 210.361 139.669 200.477 131.543 180.798C128.975 174.572 125.33 169.208 124.64 162.748C124.578 162.114 124.495 161.549 124.446 160.922C123.293 145.706 132.938 131.257 148.554 126.052C153.663 124.285 159.125 123.541 164.573 123.869C170.021 124.197 175.33 125.59 180.145 127.954C181.808 128.76 183.3 129.834 184.549 131.124C189.299 131.238 195.264 132.005 198.067 133.203C202.816 135.245 206.62 138.821 209.464 142.846C214.711 150.351 216.817 159.347 215.395 168.168C214.577 173.05 212.684 177.727 209.83 181.914C208.423 184.011 206.791 185.974 204.956 187.772C203.348 189.319 201.063 191.576 198.86 192.406C198.885 192.424 198.916 192.434 198.947 192.434C198.978 192.434 199.009 192.424 199.033 192.406L198.391 201.834C211.577 199.076 246.806 187.715 272.632 140.805C274.496 137.172 276.416 133.558 278.432 129.983C284.396 119.338 290.789 108.75 299.26 99.595C301.331 97.376 304.396 95.3726 307.689 96.3362C310.575 97.1795 312.522 100.14 310.513 102.626L296.65 120.022L301.075 119.496C301.558 119.603 302.009 119.806 302.397 120.089C302.785 120.373 303.102 120.731 303.324 121.138C303.546 121.546 303.669 121.993 303.684 122.448C303.698 122.904 303.604 123.357 303.409 123.776L300.606 129.888L301.931 128.455C302.843 127.466 304.136 126.839 305.54 126.705C306.943 126.571 308.348 126.941 309.462 127.736C310.575 128.533 311.311 129.693 311.515 130.975C311.718 132.257 311.374 133.562 310.554 134.617L303.25 143.284C302.272 144.428 301.029 145.36 299.612 146.01L285.156 152.414C289.431 157.24 293.407 162.284 297.064 167.522C289.127 181.494 279.821 194.774 269.263 207.197C251.466 228.253 225.84 251.787 194.553 261.626C193.862 279.03 190.514 296.274 185.316 313.145C201.546 313.145 217.031 313.145 232.688 313.145L244.493 283.563C245.036 282.198 246.022 281.019 247.319 280.187C248.615 279.354 250.16 278.908 251.742 278.909H298.928C299.749 278.912 300.562 279.058 301.324 279.34C302.48 279.779 303.47 280.523 304.166 281.477C304.863 282.432 305.236 283.555 305.238 284.704C305.23 285.408 305.085 286.106 304.81 286.764L301.683 294.233H301.579H288.276L282.864 308.473L284.403 304.878H291.058C292.101 304.878 293.127 305.114 294.045 305.566C294.964 306.018 295.747 306.671 296.324 307.468C296.901 308.265 297.256 309.181 297.354 310.134C297.454 311.087 297.294 312.047 296.892 312.93L291.224 325.381C289.515 329.131 286.806 332.425 283.345 334.959C279.885 337.493 275.785 339.186 271.424 339.881L270.824 339.976L269.712 342.994L270.285 341.954C270.099 342.366 269.885 342.816 269.692 343.311H284.617C284.617 343.311 281.303 352.187 275.208 352.72C274.715 352.755 274.22 352.74 273.73 352.675H242.802C244.535 354.444 246.482 356.587 248.56 359.104C257.534 358.983 270.589 359.865 273.82 365.621C274.376 366.194 274.884 366.804 275.339 367.447C276.574 369.349 276.982 373.787 276.685 380.197C276.772 386.807 276.169 393.41 274.883 399.914C276.448 402.611 277.953 405.322 279.398 408.049C282.541 413.442 285.375 418.982 287.889 424.647C287.976 424.797 288.048 424.954 288.103 425.116C295.639 440.987 302.251 457.215 307.91 473.731L308.228 474.752C312.508 486.341 315.994 496.872 317.32 503.282L339.756 499.059C340.526 498.825 341.345 498.761 342.147 498.874C342.949 498.986 343.709 499.272 344.368 499.707C345.026 500.142 345.562 500.714 345.933 501.376C346.304 502.038 346.499 502.771 346.501 503.516Z" fill="#EBE6E6"/>
<path d="M269.077 344.071H284.003C283.39 345.617 282.611 347.104 281.676 348.509C279.833 351.159 276.989 353.93 273.226 353.461H227.945C226.185 353.471 224.471 352.945 223.071 351.964C222.761 350.647 222.85 349.276 223.327 348.002C241.614 345.428 260.351 342.657 268.732 341.066L270.313 340.812L269.077 344.071Z" fill="#3FBDF1"/>
<path d="M304.624 285.54C304.616 286.245 304.471 286.943 304.196 287.601L301.075 295.063H287.765L282.298 309.391L280.309 313.969H236.927L246.979 288.824C247.524 287.46 248.513 286.282 249.81 285.45C251.108 284.618 252.652 284.172 254.234 284.171H301.414C302.235 284.172 303.048 284.319 303.809 284.602C304.074 284.701 304.332 284.813 304.582 284.938C304.603 285.128 304.624 285.344 304.624 285.54Z" fill="#3FBDF1"/>
<path d="M304.631 285.534C304.622 286.238 304.477 286.936 304.203 287.594L301.075 295.056H287.772L292.398 283.53C292.909 282.252 293.893 281.18 295.179 280.502C296.465 279.824 297.969 279.584 299.429 279.823C300.888 280.062 302.21 280.765 303.16 281.809C304.112 282.853 304.632 284.172 304.631 285.534Z" fill="#3FBDF1"/>
<path d="M283.996 344.072C283.996 344.072 279.715 355.623 271.942 353.138C267.109 351.61 267.834 347.191 269.098 344.046L283.996 344.072Z" fill="#3FBDF1"/>
<path d="M273.061 295.058H251.363" stroke="#EBE6E6" stroke-width="4.65" stroke-linecap="round" stroke-linejoin="round"/>
<path d="M270.389 302.564H248.691" stroke="#EBE6E6" stroke-width="4.65" stroke-linecap="round" stroke-linejoin="round"/>
<path d="M287.386 425.413C283.628 417.069 279.246 408.975 274.269 401.188C276.285 391.38 277.658 374.199 273.288 366.401C270.058 360.637 257.017 359.763 248.014 359.883C241.062 351.444 235.443 347.095 235.443 347.095C235.443 347.095 193.593 353.321 184.038 353.372C174.484 353.423 174.491 358.285 174.491 358.285C174.491 358.285 167.836 376.728 160.311 385.89C152.786 395.051 132.544 406.178 103.377 410.464C74.2089 414.749 51.2682 409.468 46.0076 406.78C40.7471 404.092 40.5745 406.685 49.991 423.72C59.4075 440.756 73.9051 453.005 98.2542 457.043C113.272 459.418 128.671 458.809 143.411 455.256C143.411 455.256 181.94 446.335 193.241 439.532C204.542 432.73 206.31 441.98 206.31 441.98L205.205 580.94L235.029 586.405L260.793 472.583L288.269 514.807L316.816 504.029C313.454 487.818 296.188 445.067 287.386 425.413Z" fill="#2E2E2E"/>
<path d="M209.444 239.608C208.832 243.468 207.045 247.09 204.287 250.056C202.168 252.542 199.473 254.563 196.396 255.972C195.674 256.292 194.923 256.555 194.152 256.758C194.152 254.558 194.111 252.32 193.98 250.139C193.49 241.966 191.695 233.458 186.027 227.175C183.3 224.173 179.858 221.788 175.968 220.201C176.079 218.692 176.21 217.196 176.313 215.687C176.61 213.107 176.596 210.504 176.272 207.927C175.906 206.363 175.698 204.771 175.651 203.172C175.713 201.682 175.478 195.963 176.762 194.727C178.904 195.547 181.2 195.978 183.521 195.995C188.719 195.957 192.848 193.028 195.63 189.281C196.653 188.974 197.717 188.795 198.792 188.749C201.94 189.18 192.544 196.959 195.609 196.078C193.614 196.642 192.157 199.393 191.218 200.966C189.838 203.4 189.037 206.266 190.39 208.84C191.715 211.3 194.491 213.417 196.458 215.44C199.111 217.997 201.592 220.701 203.886 223.536C207.518 228.177 210.169 233.877 209.444 239.608Z" fill="#3FBDF1"/>
<path d="M161.664 216.967C166.607 217.249 171.456 218.339 175.982 220.188C179.869 221.775 183.308 224.161 186.033 227.162C191.701 233.451 193.496 241.953 193.986 250.125C194.118 252.325 194.18 254.563 194.159 256.744C194.055 276.094 190.548 295.24 184.791 313.962C202.671 313.962 219.633 313.962 236.913 313.962H280.309L282.298 309.391L283.885 305.714H290.582C291.625 305.714 292.652 305.951 293.571 306.403C294.491 306.855 295.274 307.509 295.852 308.307C296.431 309.103 296.785 310.02 296.884 310.974C296.984 311.927 296.825 312.888 296.422 313.772L290.754 326.224C289.042 329.971 286.329 333.263 282.868 335.796C279.407 338.328 275.308 340.02 270.948 340.717L270.347 340.819L268.766 341.072C260.385 342.664 241.649 345.434 223.361 348.008C206.634 350.386 190.272 352.586 182.533 353.606C179.599 354 176.603 354.291 173.559 354.469C155.492 355.489 136.838 351.8 132.006 332.913C128.858 320.816 129.548 307.775 129.693 295.183" stroke="black" stroke-width="4.65" stroke-miterlimit="10"/>
<path d="M248.159 360.428C259.854 359.934 270.334 361.525 274.828 368.245C277.092 371.644 276.54 383.626 274.207 400.338" stroke="black" stroke-width="4.65" stroke-miterlimit="10"/>
<path d="M52.2415 427.271C52.267 427.3 52.2877 427.332 52.3036 427.367C57.3087 436.737 66.1108 444.827 77.3706 450.489C117.046 470.422 176.721 447.065 198.184 437.346C199.041 436.958 199.991 436.778 200.944 436.822C201.897 436.866 202.822 437.133 203.633 437.597C204.443 438.061 205.11 438.707 205.573 439.474C206.035 440.241 206.277 441.103 206.275 441.98V591.458L252.191 602.141C252.902 602.309 253.642 602.343 254.368 602.241C255.093 602.139 255.789 601.903 256.412 601.547C257.036 601.192 257.576 600.724 257.997 600.173C258.419 599.621 258.715 598.997 258.867 598.337C259.169 597.056 258.913 595.717 258.153 594.608C257.393 593.498 256.189 592.707 254.8 592.403L234.994 586.412C235.912 580.503 249.347 526.467 260.765 472.59" stroke="black" stroke-width="4.65" stroke-miterlimit="10"/>
<path d="M234.559 346.392C246.295 355.521 254.724 369.558 262.615 381.483C281.842 410.54 296.222 442.164 307.392 474.523C310.768 484.299 313.875 494.177 316.809 504.055L339.232 499.826C340.504 499.446 341.888 499.539 343.087 500.084C344.286 500.629 345.206 501.583 345.649 502.743C346.092 503.903 346.023 505.176 345.457 506.289C344.891 507.403 343.874 508.269 342.621 508.702L294.538 525.186C294.538 525.186 280.468 501.05 260.807 472.564C231.991 430.771 178.743 366.356 164.688 380.095" stroke="black" stroke-width="4.65" stroke-miterlimit="10"/>
<path d="M192.613 203.374C192.613 203.374 239.764 200.375 272.087 141.609C272.087 141.609 282.305 148.083 296.547 168.332C296.547 168.332 256.589 242.808 193.987 262.462" stroke="black" stroke-width="4.65" stroke-miterlimit="10"/>
<path d="M188.346 134.66L191.108 138.515L192.771 140.861C194.459 144.472 195.943 148.161 197.217 151.911L197.3 152.178L200.462 163.273C200.468 163.285 200.468 163.299 200.462 163.311C201.524 164.917 202.99 166.267 204.735 167.248C205.148 167.453 205.533 167.702 205.881 167.99C207.78 169.739 202.775 170.247 201.739 170.824C201.282 171.112 200.907 171.497 200.647 171.946C200.386 172.395 200.247 172.895 200.241 173.404C194.297 196.12 198.122 190.154 195.567 195.207C197.783 193.483 203.293 187.999 203.293 187.999C203.983 187.586 204.632 186.35 205.081 185.735C206.506 183.727 207.733 181.605 208.746 179.395C211.896 172.796 212.623 165.435 210.817 158.422C207.966 147.524 201.318 136.619 188.346 134.66Z" fill="#3FBDF1"/>
<path d="M187.78 141.515C187.275 143.872 186.057 146.052 184.266 147.804C182.322 149.756 180.058 151.419 177.556 152.73C172.848 155.304 167.608 157.251 163.652 160.725C159.691 164.223 157.321 168.968 157.018 174.007C156.742 179.168 158.751 184.513 159.972 189.344C163.845 204.959 162.603 219.966 160.463 235.683C158.433 250.512 154.111 265.025 145.73 277.933C135.844 293.149 119.614 305.328 101.347 311.579C86.159 316.784 56.6461 321.4 45.4829 306.919C43.5568 302.348 43.5361 297.118 44.2817 292.191C48.6655 263.294 72.7936 233.635 101.582 221.615C117.004 215.173 142.154 205.276 134.029 185.591C131.44 179.384 127.815 174.027 127.125 167.541C127.063 166.951 127.001 166.361 126.939 165.734C125.779 150.518 135.423 136.075 151.039 130.864C156.148 129.092 161.61 128.345 167.059 128.673C172.508 129.001 177.817 130.397 182.63 132.766C184.339 133.601 185.869 134.713 187.145 136.05C187.233 136.141 187.311 136.238 187.38 136.342C187.477 136.566 187.555 136.797 187.615 137.033C187.996 138.502 188.052 140.026 187.78 141.515Z" fill="#3FBDF1"/>
<path d="M194.194 256.091C202.533 254.323 209.851 248.839 211.943 240.825C213.89 233.401 210.811 225.78 206.04 219.808C201.615 214.292 192.399 209.664 193.124 201.84C193.358 199.304 194.725 197.085 196.506 195.12C197.148 194.435 197.811 193.801 198.536 193.154" stroke="black" stroke-width="4.65" stroke-miterlimit="10"/>
<path d="M176.997 194.549L176.61 220.435" stroke="black" stroke-width="4.65" stroke-miterlimit="10"/>
<path d="M131.019 181.571C128.444 175.357 124.805 170 124.115 163.521C124.046 162.925 123.984 162.329 123.936 161.695C122.769 146.479 132.42 132.042 148.029 126.825C153.139 125.055 158.602 124.308 164.052 124.637C169.502 124.965 174.812 126.359 179.627 128.727C181.332 129.565 182.857 130.68 184.128 132.017L184.453 132.379C185.58 133.644 186.399 135.116 186.855 136.696C187.311 138.277 187.394 139.928 187.097 141.54C186.594 143.891 185.384 146.065 183.604 147.816C181.652 149.772 179.384 151.44 176.879 152.762C172.171 155.336 166.938 157.269 162.969 160.744C159.006 164.251 156.641 169.01 156.355 174.058C156.072 179.218 158.088 184.557 159.289 189.4C163.162 205.016 161.926 220.016 159.786 235.727C157.756 250.556 153.442 265.075 145.047 277.983C135.161 293.199 118.937 305.384 100.663 311.629C85.1787 316.93 54.8166 321.621 44.1505 306.107C40.5675 300.902 40.3328 294.315 41.2579 288.216C45.6417 259.324 69.7836 229.653 98.5579 217.639C114.008 211.121 139.158 201.25 131.019 181.571Z" stroke="black" stroke-width="4.65" stroke-miterlimit="10"/>
<path d="M190.3 164.002C191.783 164.002 192.986 162.898 192.986 161.536C192.986 160.174 191.783 159.069 190.3 159.069C188.817 159.069 187.615 160.174 187.615 161.536C187.615 162.898 188.817 164.002 190.3 164.002Z" fill="black"/>
<path d="M189.672 153.586C189.672 153.586 180.58 157.352 183.459 164.675" stroke="black" stroke-width="4.65" stroke-miterlimit="10"/>
<path d="M198.073 193.275C200.352 192.515 202.782 190.105 204.439 188.527C206.271 186.731 207.908 184.775 209.326 182.688C213.321 176.817 215.408 170.022 215.34 163.1C215.273 156.178 213.055 149.418 208.947 143.614C206.102 139.582 202.312 136.006 197.563 133.977C193.603 132.264 189.173 131.69 184.853 132.329C187.267 134.139 189.433 136.213 191.301 138.504C194.115 141.895 196.085 145.813 197.072 149.98C197.224 150.709 197.355 151.431 197.494 152.167C198.184 156.085 198.57 160.054 200.662 163.262C201.729 164.881 203.201 166.244 204.956 167.237C205.369 167.441 205.754 167.69 206.102 167.979C208.001 169.729 202.996 170.23 201.96 170.806C199.302 172.233 200.289 176.329 199.937 178.7C199.513 181.467 198.611 184.155 197.266 186.663C196.789 187.554 196.247 188.413 195.643 189.237C192.882 192.996 188.74 195.938 183.534 195.964C181.218 195.945 178.928 195.513 176.79 194.696C173.122 193.327 169.842 191.209 167.2 188.501" stroke="black" stroke-width="4.65" stroke-miterlimit="10"/>
<path d="M193.075 180.157C193.075 180.157 186.814 183.435 184.101 175.891" stroke="black" stroke-width="4.65" stroke-miterlimit="10"/>
<path d="M283.485 153.744L299.087 146.82C300.513 146.189 301.76 145.259 302.725 144.107L310.009 135.427C310.848 134.374 311.206 133.062 311.01 131.769C310.814 130.476 310.076 129.305 308.955 128.503C307.834 127.7 306.417 127.331 305.004 127.472C303.591 127.613 302.293 128.254 301.386 129.259L300.054 130.685L302.863 124.58C303.054 124.16 303.144 123.708 303.129 123.253C303.112 122.799 302.989 122.352 302.768 121.945C302.548 121.538 302.235 121.179 301.849 120.894C301.464 120.608 301.017 120.401 300.537 120.287L296.098 120.826L309.974 103.423C311.942 100.957 310.029 97.9769 307.151 97.1337C303.837 96.1637 300.772 98.1671 298.714 100.386C290.251 109.541 283.837 120.129 277.879 130.78C275.877 134.36 273.946 137.97 272.087 141.609" stroke="black" stroke-width="4.65" stroke-linejoin="round"/>
<path d="M296.105 120.826C296.105 120.826 287.054 131.167 300.061 130.685" stroke="black" stroke-width="4.65" stroke-miterlimit="10"/>
<path d="M270.907 340.71C270.907 340.71 264.196 350.708 272.011 353.162C279.826 355.616 284.1 344.077 284.1 344.077H269.015" stroke="black" stroke-width="4.65" stroke-miterlimit="10"/>
<path d="M273.309 353.455H242.188" stroke="black" stroke-width="4.65" stroke-miterlimit="10"/>
<path d="M304.727 285.534C304.718 286.238 304.573 286.936 304.299 287.594L301.179 295.056H287.876L292.494 283.53C293.005 282.252 293.99 281.18 295.276 280.502C296.561 279.824 298.066 279.584 299.526 279.823C300.985 280.062 302.306 280.765 303.258 281.809C304.208 282.853 304.729 284.172 304.727 285.534Z" stroke="black" stroke-width="4.65" stroke-miterlimit="10"/>
<path d="M239.771 295.057L232.177 313.957L243.962 284.393C244.507 283.026 245.497 281.847 246.798 281.015C248.098 280.182 249.646 279.737 251.231 279.74H298.411" stroke="black" stroke-width="4.65" stroke-miterlimit="10"/>
<path d="M280.323 313.957L287.876 295.058" stroke="black" stroke-width="4.65" stroke-miterlimit="10"/>
<path d="M41.0784 297.732C20.264 349.194 29.8048 400.338 29.8048 400.338C61.2439 416.404 105.821 415.009 137.75 400.89C149.044 395.881 161.222 388.337 166.151 377.28C169.769 369.184 173.531 361.151 176.631 352.941" stroke="black" stroke-width="4.65" stroke-miterlimit="10"/>
<path d="M23.1289 458.3H206.303" stroke="black" stroke-width="4.65" stroke-miterlimit="10"/>
<path d="M184.805 313.976L182.83 320.106" stroke="black" stroke-width="4.65" stroke-miterlimit="10"/>
<path d="M52.3037 427.367C52.3037 427.367 44.2403 414.155 41.6169 405.361" stroke="black" stroke-width="4.65" stroke-miterlimit="10"/>
<path d="M92.103 53.9839V185.463H38.3101C40.0822 180.26 41.5665 174.998 42.7629 169.676C46.4356 153.293 47.5264 136.378 46.9534 119.292C45.8833 86.5078 60.4499 68.4579 79.8008 58.853C83.7365 56.8991 87.8539 55.2696 92.103 53.9839Z" stroke="#CCDDE2" stroke-width="4.65" stroke-miterlimit="10"/>
<path d="M79.8008 58.853V169.676H42.7422C46.4149 153.294 47.5057 136.378 46.9327 119.292C45.8833 86.508 60.45 68.4707 79.8008 58.853Z" stroke="#CCDDE2" stroke-width="4.65" stroke-miterlimit="10"/>
</svg>
